<svg width="22" height="22" viewBox="0 0 22 22" xmlns="http://www.w3.org/2000/svg">
  <path
    d="M3.79298 17.3729C3.68032 17.258 3.57754 17.1369 3.4824 17.0117L0.432652 20.1227L2.273 22L5.32284 18.889C5.20012 18.792 5.08148 18.6871 4.96882 18.5722L3.79298 17.3729Z"
    fill="currentColor"
  />
  <path
    d="M18.5173 17.0118C18.4222 17.137 18.3194 17.258 18.2068 17.3729L17.031 18.5723C16.9184 18.6872 16.7997 18.792 16.677 18.8891L19.7265 21.9997L21.5669 20.1224L18.5173 17.0118Z"
    fill="currentColor"
  />
  <path
    d="M12.0999 17.9704L12.2277 18.1007C13.1735 19.0655 14.7069 19.0655 15.6528 18.1007L17.7463 15.9653C18.6921 15.0005 18.6921 13.4363 17.7463 12.4715L17.6184 12.3411L16.2352 13.7487L14.6775 12.1597L11.9173 14.9752L13.4751 16.5642L12.0999 17.9704Z"
    fill="currentColor"
  />
  <path
    d="M10.0797 7.46618L6.20452 3.51333C4.55314 1.82874 2.48389 0.633746 0.218109 0.0559278L0 0.000306813L0.0545273 0.222835C0.620984 2.53402 1.79253 4.64472 3.44399 6.32926L7.31917 10.2822L10.0797 7.46618Z"
    fill="currentColor"
  />
  <path
    d="M18.556 6.329C20.2075 4.64442 21.379 2.53376 21.9455 0.222572L22 0L21.7818 0.055621C19.5161 0.633439 17.4469 1.82848 15.7955 3.51306L5.76121 13.7487L4.38101 12.3408L4.25322 12.4712C3.30739 13.4359 3.30739 15.0002 4.25322 15.965L6.34911 18.1029C7.29493 19.0677 8.82836 19.0677 9.77423 18.1029L9.90202 17.9725L8.52173 16.5646L18.556 6.329Z"
    fill="currentColor"
  />
</svg>
