<svg viewBox="0 0 199.9 199.9" xmlns="http://www.w3.org/2000/svg">
  <rect width="100%" height="100%" fill="#ffffff" />
  <path
    d="m0 0v200h200v-200zm33.5 123.1h-11.2v-11.4h11.3v11.4zm50.7-.1h-14.4v-32.3c0-.9-.7-1.7-1.7-1.7h-14.7c-.9 0-1.7.8-1.7 1.7v32.3h-14.3v-43.7c0-.9.7-1.7 1.7-1.7h43.4c.9 0 1.7.8 1.7 1.7zm41.3-16h-21.3c-.9 0-1.7.8-1.7 1.7v14.3h-14.3v-43.7c0-.9.7-1.7 1.7-1.7h40.9v11.4h-26.6c-.9 0-1.7.8-1.7 1.7v3.7c0 .9.7 1.7 1.7 1.7h21.3zm46.5 16.1-5-3c-2.9 2-7.3 2.9-13.2 2.9h-27.7v-11.4h27l.3-.1-12.6-7.9 5.7-9.1 12.1 7.7v-4.1c0-3.4-.6-5.8-1.8-7.1s-3.4-2-6.5-2h-16.1v-11.4h19.4c7.1 0 12 1.3 14.8 3.8s4.2 6.6 4.2 12.2v17.3l5.2 3.3z"
    fill="#ff6b00"
  />
</svg>
